<svg width="439" height="439" viewBox="0 0 439 439" fill="none" xmlns="http://www.w3.org/2000/svg">
<path d="M42.1353 106.32C47.6885 110.238 64.4282 121.877 92.355 141.229C120.283 160.582 141.677 175.483 156.54 185.933C158.172 187.078 161.641 189.568 166.948 193.406C172.256 197.247 176.667 200.351 180.176 202.718C183.688 205.084 187.934 207.739 192.917 210.678C197.899 213.614 202.595 215.823 207.005 217.285C211.415 218.759 215.498 219.489 219.253 219.489H219.5H219.747C223.502 219.489 227.587 218.758 231.997 217.285C236.405 215.823 241.105 213.612 246.083 210.678C251.063 207.736 255.308 205.084 258.82 202.718C262.332 200.351 266.739 197.247 272.049 193.406C277.355 189.565 280.828 187.078 282.461 185.933C297.484 175.483 335.704 148.942 397.109 106.315C409.031 97.989 418.991 87.9429 426.992 76.1834C435 64.429 438.999 52.098 438.999 39.1973C438.999 28.4168 435.118 19.1885 427.36 11.5133C419.602 3.83633 410.414 -2.61855e-07 399.802 -2.61855e-07H39.1947C26.6201 -2.61855e-07 16.943 4.24562 10.1653 12.7368C3.38843 21.2298 0 31.8456 0 44.5833C0 54.8721 4.49273 66.0216 13.4739 78.0248C22.4542 90.0289 32.0112 99.4614 42.1353 106.32Z" transform="translate(0 48)" fill="white"/>
<path d="M414.498 21.3122C360.936 57.5655 320.264 85.7403 292.504 105.831C283.195 112.687 275.643 118.04 269.844 121.875C264.044 125.713 256.331 129.633 246.694 133.632C237.06 137.638 228.081 139.634 219.75 139.634H219.5H219.254C210.925 139.634 201.941 137.638 192.307 133.632C182.673 129.633 174.955 125.713 169.157 121.875C163.361 118.04 155.807 112.687 146.499 105.831C124.449 89.6633 83.8655 61.4868 24.7452 21.3122C15.4337 15.1102 7.18614 8.00128 0 -3.03752e-06V194.506C0 205.292 3.83633 214.515 11.5133 222.191C19.1885 229.87 28.4177 233.708 39.1973 233.708H399.805C410.582 233.708 419.811 229.87 427.487 222.191C435.165 214.513 439 205.293 439 194.506V-3.03752e-06C431.976 7.83568 423.813 14.9446 414.498 21.3122Z" transform="translate(0 159.217)" fill="white"/>
</svg>
