<svg width="439" height="439" viewBox="0 0 439 439" fill="none" xmlns="http://www.w3.org/2000/svg">
<path d="M4.06285 0.0886765C1.01385 0.656676 -0.318156 2.08768 0.0638442 4.36968C0.443844 6.65268 2.15684 7.41567 5.20184 6.65267C8.25084 5.89267 9.58185 4.55766 9.19885 2.65566C8.82085 0.563663 7.10785 -0.294324 4.06285 0.0886765Z" transform="translate(154.11 352.51)" fill="black"/>
<path d="M4.568 0.0767633C1.522 0.0767633 1.83105e-06 1.11774 1.83105e-06 3.21574C1.83105e-06 5.68974 1.619 6.73374 4.853 6.35374C7.899 6.35374 9.42301 5.30674 9.42301 3.21574C9.42301 0.74474 7.804 -0.306237 4.568 0.0767633Z" transform="translate(137.33 354.808)" fill="black"/>
<path d="M0.216835 2.30261C-0.543165 4.39761 0.694834 5.82161 3.92783 6.58661C6.78283 7.72361 8.59184 7.15462 9.35184 4.87262C9.92384 2.78162 8.68584 1.2626 5.64084 0.304597C2.78484 -0.454403 0.977835 0.202613 0.216835 2.30261Z" transform="translate(119.412 351.719)" fill="black"/>
<path d="M414.41 24.123C398.326 8.042 378.964 0 356.309 0H82.225C59.577 0 40.208 8.042 24.123 24.123C8.042 40.207 0 59.576 0 82.225V356.313C0 378.963 8.042 398.33 24.123 414.411C40.207 430.495 59.577 438.537 82.225 438.537H146.178C150.362 438.537 153.505 438.393 155.598 438.113C157.69 437.825 159.782 436.587 161.877 434.396C163.973 432.209 165.017 429.02 165.017 424.834C165.017 424.266 164.967 417.788 164.873 405.417C164.776 393.042 164.729 383.241 164.729 376.007L158.162 377.15C153.975 377.91 148.693 378.245 142.316 378.149C135.942 378.053 129.326 377.389 122.475 376.151C115.62 374.912 109.246 372.058 103.345 367.589C97.447 363.112 93.26 357.261 90.785 350.03L87.929 343.459C86.026 339.086 83.03 334.23 78.937 328.905C74.844 323.573 70.705 319.956 66.518 318.053L64.519 316.625C63.188 315.674 61.951 314.527 60.808 313.196C59.667 311.861 58.811 310.527 58.24 309.199C57.669 307.864 58.143 306.769 59.667 305.91C61.191 305.055 63.948 304.631 67.947 304.631L73.655 305.486C77.463 306.246 82.171 308.528 87.789 312.337C93.403 316.143 98.018 321.091 101.635 327.18C106.015 334.986 111.292 340.93 117.481 345.023C123.665 349.12 129.9 351.166 136.18 351.166C142.46 351.166 147.884 350.69 152.454 349.742C157.019 348.788 161.302 347.357 165.301 345.454C167.014 332.703 171.678 322.895 179.289 316.044C168.441 314.901 158.687 313.19 150.024 310.904C141.366 308.618 132.419 304.909 123.189 299.768C113.955 294.628 106.295 288.256 100.204 280.638C94.114 273.02 89.116 263.028 85.217 250.66C81.316 238.285 79.365 224.008 79.365 207.831C79.365 184.802 86.886 165.194 101.922 149.017C94.878 131.697 95.543 112.285 103.919 90.775C109.439 89.061 117.625 90.347 128.473 94.63C139.323 98.916 147.267 102.581 152.313 105.622C157.359 108.664 161.402 111.236 164.448 113.332C182.153 108.383 200.424 105.909 219.266 105.909C238.107 105.909 256.381 108.383 274.087 113.332L284.936 106.48C292.362 101.91 301.116 97.723 311.205 93.918C321.293 90.112 329 89.064 334.332 90.778C342.894 112.288 343.66 131.7 336.611 149.019C351.647 165.198 359.17 184.805 359.17 207.834C359.17 224.014 357.219 238.339 353.318 250.803C349.42 263.27 344.379 273.266 338.188 280.784C332.004 288.303 324.294 294.627 315.064 299.77C305.832 304.907 296.886 308.623 288.224 310.902C279.563 313.188 269.81 314.906 258.961 316.049C268.852 324.611 273.8 338.121 273.8 356.587V424.825C273.8 428.062 274.272 430.677 275.224 432.676C276.182 434.674 277.702 436.05 279.795 436.817C281.897 437.577 283.744 438.052 285.366 438.241C286.988 438.432 289.315 438.528 292.361 438.528H356.314C378.962 438.528 398.332 430.486 414.409 414.402C430.493 398.318 438.535 378.948 438.535 356.3V82.225C438.533 59.576 430.491 40.204 414.41 24.123Z" fill="black"/>
<path d="M0.873383 0.688008C-0.457617 1.63601 -0.267619 3.15901 1.44538 5.25301C3.35138 7.15501 4.87238 7.44199 6.01538 6.10799C7.34638 5.15999 7.15638 3.63699 5.44038 1.53899C3.53838 -0.171009 2.01638 -0.457992 0.873383 0.688008Z" transform="translate(85.9194 318.507)" fill="black"/>
<path d="M0.197136 0.896248C-0.372864 2.23125 0.293137 3.37424 2.19614 4.32224C3.71714 5.27724 4.95814 5.08925 5.90714 3.75425C6.47714 2.41925 5.81113 1.27624 3.90813 0.321236C2.00513 -0.250764 0.768136 -0.0587522 0.197136 0.896248Z" transform="translate(77.1768 311.161)" fill="black"/>
<path d="M1.28625 0.701878C-0.428746 1.64988 -0.428746 3.36787 1.28625 5.83887C2.99925 8.31687 4.61425 8.98089 6.13925 7.83689C7.85325 6.50289 7.85325 4.69489 6.13925 2.40989C4.61825 -0.0581138 2.99925 -0.636122 1.28625 0.701878Z" transform="translate(94.3599 329.629)" fill="black"/>
<path d="M1.05267 1.09893C-0.661325 2.62493 -0.283327 4.42591 2.19467 6.52691C4.47567 8.80591 6.37967 9.09291 7.90267 7.37591C9.42667 5.85691 9.04568 4.04992 6.76067 1.95592C4.47968 -0.324075 2.57567 -0.61207 1.05267 1.09893Z" transform="translate(104.588 342.075)" fill="black"/>
</svg>
