<svg width="439" height="439" viewBox="0 0 439 439" fill="none" xmlns="http://www.w3.org/2000/svg">
<path d="M414.407 24.123C398.33 8.042 378.96 0 356.312 0H82.225C59.577 0 40.207 8.042 24.123 24.123C8.042 40.207 0 59.576 0 82.225V356.309C0 378.956 8.042 398.327 24.123 414.411C40.207 430.495 59.577 438.537 82.225 438.537H356.309C378.957 438.537 398.327 430.495 414.404 414.411C430.488 398.327 438.53 378.957 438.53 356.309V82.225C438.529 59.576 430.487 40.204 414.407 24.123ZM133.615 367.157H67.663V169.016H133.615V367.157ZM127.623 132.332C120.772 138.899 111.73 142.183 100.499 142.183H100.211C89.363 142.183 80.563 138.899 73.804 132.332C67.044 125.765 63.666 117.629 63.666 107.922C63.666 98.025 67.142 89.839 74.087 83.366C81.037 76.895 90.029 73.658 101.067 73.658C112.106 73.658 120.957 76.895 127.62 83.366C134.281 89.839 137.708 98.025 137.897 107.922C137.896 117.625 134.474 125.761 127.623 132.332ZM370.87 367.157H304.918V261.237C304.918 231.358 293.882 216.414 271.802 216.414C263.428 216.414 256.382 218.745 250.674 223.409C244.959 228.07 240.678 233.733 237.827 240.4C236.492 243.822 235.828 249.15 235.828 256.381V367.156H169.876C170.447 247.627 170.447 181.577 169.876 169.014H235.828V196.988C249.695 175.307 269.386 164.444 294.929 164.444C317.769 164.444 336.139 171.964 350.033 186.998C363.928 202.035 370.874 224.212 370.874 253.517V367.157H370.87Z" fill="black"/>
</svg>
