<svg width="439" height="439" viewBox="0 0 439 439" fill="none" xmlns="http://www.w3.org/2000/svg">
<path d="M414.407 24.123C398.33 8.042 378.96 0 356.312 0H82.225C59.577 0 40.207 8.042 24.123 24.123C8.042 40.207 0 59.576 0 82.225V356.309C0 378.956 8.042 398.327 24.123 414.411C40.207 430.495 59.577 438.537 82.225 438.537H356.309C378.957 438.537 398.327 430.495 414.404 414.411C430.488 398.327 438.53 378.957 438.53 356.309V82.225C438.529 59.576 430.487 40.204 414.407 24.123ZM335.468 168.735C335.659 170.448 335.756 173.013 335.756 176.445C335.756 192.434 333.422 208.47 328.761 224.549C324.1 240.636 316.961 256.053 307.345 270.803C297.739 285.552 286.271 298.594 272.949 309.918C259.624 321.238 243.638 330.283 224.981 337.035C206.333 343.797 186.344 347.178 165.028 347.178C131.912 347.178 101.268 338.226 73.097 320.342C77.665 320.91 82.426 321.197 87.372 321.197C114.972 321.197 139.811 312.632 161.891 295.497C148.95 295.312 137.385 291.318 127.203 283.506C117.018 275.703 109.93 265.807 105.932 253.815C110.879 254.575 114.59 254.952 117.064 254.952C121.251 254.952 126.106 254.192 131.624 252.673C117.73 250.004 106.026 243.111 96.509 231.976C86.99 220.84 82.232 208.136 82.232 193.862V193.291C92.317 198.046 101.834 200.52 110.781 200.713C93.46 189.1 84.8 172.448 84.8 150.75C84.8 140.09 87.558 130.003 93.078 120.486C108.113 138.95 126.389 153.699 147.894 164.738C169.401 175.776 192.434 181.965 216.986 183.296C216.036 179.68 215.559 175.11 215.559 169.592C215.559 153.03 221.412 138.9 233.119 127.193C244.822 115.487 258.956 109.632 275.513 109.632C293.028 109.632 307.592 115.915 319.201 128.478C332.335 126.004 345.093 121.148 357.461 113.918C352.704 128.57 343.848 139.706 330.911 147.32C343.279 145.604 354.791 142.37 365.448 137.612C357.455 149.793 347.459 160.166 335.468 168.735Z" fill="black"/>
</svg>
