<svg width="104" height="104" viewBox="0 0 104 104" fill="none" xmlns="http://www.w3.org/2000/svg">
<g filter="url(#filter0_d)">
<rect width="96" height="96" fill="#333333" transform="translate(4)"/>
<path d="M24.6053 2.71308L21.3746 0L12.3026 10.8027L3.23086 0L0 2.71308L9.54816 14.0827L0 25.4526L3.23086 28.1655L12.3026 17.3628L21.3746 28.1655L24.6053 25.4526L15.0573 14.0827L24.6053 2.71308Z" transform="translate(63.3948 37.9948)" fill="#00B8FA"/>
<path d="M26.6829 22.0776C26.6829 17.0473 30.7754 12.9548 35.8057 12.9548L37.915 10.8454L35.8057 8.73605C31.0958 8.73605 26.9484 11.1893 24.5735 14.8849C22.1986 11.1893 18.0512 8.73605 13.3414 8.73605C9.81605 8.73605 6.60614 10.1111 4.21861 12.3521V0H0V22.0776C0 29.4341 5.985 35.4191 13.3415 35.4191C18.0513 35.4191 22.1988 32.9659 24.5737 29.2703C26.9485 32.9659 31.096 35.4191 35.8058 35.4191L37.9152 33.3097L35.8058 31.2003C30.7754 31.2003 26.6829 27.108 26.6829 22.0776ZM13.3415 31.2003C8.31122 31.2003 4.21875 27.108 4.21875 22.0776C4.21875 17.0471 8.31122 12.9548 13.3415 12.9548C18.3718 12.9548 22.4643 17.0473 22.4643 22.0776C22.4643 27.1079 18.3718 31.2003 13.3415 31.2003Z" transform="translate(16 30)" fill="#5CD4FF"/>
<path d="M0 0V4.21861C5.0303 4.21861 9.12277 8.31108 9.12277 13.3414C9.12277 18.3717 5.0303 22.4641 0 22.4641V26.6828C7.35652 26.6828 13.3415 20.6978 13.3415 13.3412C13.3415 5.98472 7.35638 0 0 0Z" transform="translate(51.8058 38.7361)" fill="#00B8FA"/>
</g>
<defs>
<filter id="filter0_d" x="0" y="0" width="104" height="104" filterUnits="userSpaceOnUse" color-interpolation-filters="sRGB">
<feFlood flood-opacity="0" result="BackgroundImageFix"/>
<feColorMatrix in="SourceAlpha" type="matrix" values="0 0 0 0 0 0 0 0 0 0 0 0 0 0 0 0 0 0 255 0"/>
<feOffset dy="4"/>
<feGaussianBlur stdDeviation="2"/>
<feColorMatrix type="matrix" values="0 0 0 0 0 0 0 0 0 0 0 0 0 0 0 0 0 0 0.25 0"/>
<feBlend mode="normal" in2="BackgroundImageFix" result="effect1_dropShadow"/>
<feBlend mode="normal" in="SourceGraphic" in2="effect1_dropShadow" result="shape"/>
</filter>
</defs>
</svg>
