<svg width="104" height="104" viewBox="0 0 104 104" fill="none" xmlns="http://www.w3.org/2000/svg">
<g filter="url(#filter0_d)">
<rect width="96" height="96" fill="#333333" transform="translate(4)"/>
<path d="M36 13.2002L18 26.4002L0 13.2002L18 0L36 13.2002Z" transform="translate(16 12)" fill="#00B8FA"/>
<path d="M36 13.2002L18 26.4002L0 13.2002L18 0L36 13.2002Z" transform="translate(16 38.4002)" fill="#00B8FA"/>
<path d="M36 13.2002L18 26.4002L0 13.2002L18 0L36 13.2002Z" transform="translate(52 38.4002)" fill="#009AD2"/>
<path d="M36 13.2002L18 26.4002L0 13.2002L18 0L36 13.2002Z" transform="translate(52 12)" fill="#009AD2"/>
<path d="M9.5625 0L0 13.2L9.5625 26.4002L27.5625 13.2L9.5625 0Z" transform="translate(42.4375 56.832)" fill="#009AD2"/>
<path d="M0 13.2L18 26.4002V0L0 13.2Z" transform="translate(34 56.832)" fill="#00B8FA"/>
</g>
<defs>
<filter id="filter0_d" x="0" y="0" width="104" height="104" filterUnits="userSpaceOnUse" color-interpolation-filters="sRGB">
<feFlood flood-opacity="0" result="BackgroundImageFix"/>
<feColorMatrix in="SourceAlpha" type="matrix" values="0 0 0 0 0 0 0 0 0 0 0 0 0 0 0 0 0 0 255 0"/>
<feOffset dy="4"/>
<feGaussianBlur stdDeviation="2"/>
<feColorMatrix type="matrix" values="0 0 0 0 0 0 0 0 0 0 0 0 0 0 0 0 0 0 0.25 0"/>
<feBlend mode="normal" in2="BackgroundImageFix" result="effect1_dropShadow"/>
<feBlend mode="normal" in="SourceGraphic" in2="effect1_dropShadow" result="shape"/>
</filter>
</defs>
</svg>
