<svg width="104" height="104" viewBox="0 0 104 104" fill="none" xmlns="http://www.w3.org/2000/svg">
<g filter="url(#filter0_d)">
<rect width="96" height="96" fill="#333333" transform="translate(4)"/>
<path d="M8.4375 12.6563L0 22.9269L8.4375 33.1976H32.5778L44.4375 12.6563L20.7181 0V12.6563H8.4375Z" transform="translate(43.5625 46.1552)" fill="#009AD2"/>
<path d="M24.1397 0H0V20.5411H24.1397V0Z" transform="translate(27.8604 58.8119)" fill="#00B8FA"/>
<path d="M24.1403 0L41.3889 11.2077L11.8597 62.3528L0 41.8113L24.1403 0Z" transform="translate(16 17)" fill="#1EA08A"/>
<path d="M40.2188 41.8115L16.0785 0H4.21875L0 10.2707L4.21875 20.5412L16.4993 41.8115H40.2188Z" transform="translate(47.7812 17)" fill="#FFD237"/>
<path d="M0 0L11.8597 20.5412V0H0Z" transform="translate(40.1403 17)" fill="#FFE17A"/>
<path d="M23.7195 0H0H23.7195Z" transform="translate(64.2805 58.8115)" fill="#FFD237"/>
</g>
<defs>
<filter id="filter0_d" x="0" y="0" width="104" height="104" filterUnits="userSpaceOnUse" color-interpolation-filters="sRGB">
<feFlood flood-opacity="0" result="BackgroundImageFix"/>
<feColorMatrix in="SourceAlpha" type="matrix" values="0 0 0 0 0 0 0 0 0 0 0 0 0 0 0 0 0 0 255 0"/>
<feOffset dy="4"/>
<feGaussianBlur stdDeviation="2"/>
<feColorMatrix type="matrix" values="0 0 0 0 0 0 0 0 0 0 0 0 0 0 0 0 0 0 0.25 0"/>
<feBlend mode="normal" in2="BackgroundImageFix" result="effect1_dropShadow"/>
<feBlend mode="normal" in="SourceGraphic" in2="effect1_dropShadow" result="shape"/>
</filter>
</defs>
</svg>
